<svg id="Capa_1" enable-background="new 0 0 512 512" height="512" viewBox="0 0 512 512" width="512" xmlns="http://www.w3.org/2000/svg"><g><g><path d="m302.096 200.5h109.809v163h-109.809z" fill="#857e87"/><path d="m302.096 200.5h21.298v163h-21.298z" fill="#6f6571"/><g><path d="m225 115c-9.665 0-14.117-7.835-14.117-17.5v-20c0-31.706 22.411-56.777 54.117-56.777l9.787-.723h112.213c9.665 0 17.5 7.835 17.5 17.5s-7.835 17.5-17.5 17.5h-122c-12.407 0-22.5 10.093-22.5 22.5v20c0 9.665-7.835 17.5-17.5 17.5z" fill="#6f6571"/></g><g><path d="m221.5 77.5v20c0 7.18 4.32 13.35 10.5 16.04-2.14.94-4.51 1.46-7 1.46-9.67 0-17.5-7.83-17.5-17.5v-20c0-31.71 25.79-57.5 57.5-57.5h14c-31.71 0-57.5 25.79-57.5 57.5z" fill="#635a63"/></g><path d="m82.215 127.5 73.179-6.117 83.606 6.117 20 44-102 6.053-94.785-6.053z" fill="#6f6571"/><path d="m93 127.5-20 44-13.351 6.053-4.649-6.053 20-44 11.074-3.819z" fill="#635a63"/><path d="m278 127.5h-225l-14-1.692v-33.106l14-2.202h225c5.523 0 10 4.477 10 10v17c0 5.523-4.477 10-10 10z" fill="#857e87"/><path d="m36.415 90.5h16.585v37h-16.585z" fill="#6f6571"/><path d="m471.92 65.92-152.612.91c-5.523 0-10-4.477-10-10l-.277-38.915c0-5.523 4.477-10 10-10l2.969-.415h152.5c16.845 0 30.5 13.655 30.5 30.5 0 6.083-1.781 11.749-4.849 16.507 0 0-4.121 4.043-6.353 5.961-5.337 4.585-14.29 5.452-21.878 5.452z" fill="#f9f8f9"/><path d="m500.151 54.507c-1.18 1.83-2.561 3.523-4.091 5.053-5.52 5.52-13.14 8.94-21.56 8.94h-156.5c-5.523 0-10-4.477-10-10v-41c0-5.523 4.477-10 10-10h4v32c0 8.284 6.716 15 15 15z" fill="#e8e8e8"/><path d="m23 142.149c-8.837 0-14.223-5.812-14.223-14.649l-.989-37c0-4.619 1.901-8.069 5.032-10.989 1.675-1.562 5.18-4.214 5.18-4.214 1.572-.517 3.254-.797 5-.797 8.837 0 16 7.163 16 16v37s-.618 2.526-.926 3.713c-1.73 6.673-7.572 10.936-15.074 10.936z" fill="#857e87"/><path d="m39 127.5c0 8.84-7.16 16-16 16s-16-7.16-16-16v-37c0-7.09 4.609-13.103 10.999-15.203l.001 36.203c0 8.84 7.16 16 16 16z" fill="#6f6571"/><path d="m125.521 439.5-.128 59.5c0 2.209 1.791 4 4 4l9.606 1.5h47c2.209 0 4-1.791 4-4v-46l-2.351-15z" fill="#6f6571"/><path d="m190 439.5v15h-39c-6.627 0-12 5.373-12 12v38h-11c-2.209 0-4-1.791-4-4v-61l34.628-4.67z" fill="#635a63"/><path d="m77.266 395.5 80.431-7.819 81.303 7.819v24c0 1.727-.219 3.402-.63 5 0 0-2.998 3.668-4.423 5.649-3.63 5.048-8.712 6.979-15.404 6.979l-121.149.372c-11.046 0-20-8.954-20-20z" fill="#857e87"/><path d="m238.37 424.5c-2.22 8.63-10.05 15-19.37 15h-124c-11.05 0-20-8.95-20-20v-24l6.862-3.606 8.138 3.606v2c0 14.91 12.09 27 27 27z" fill="#6f6571"/><path d="m288 393.043-256.5-1.149c-11.046 0-20-8.954-20-20l-1.234-177.128c0-9.319 11.734-22.636 11.734-22.636 1.598-.411 3.273-.63 5-.63h261c11.046 0 20 8.954 20 20v184c0 1.727-.219 3.402-.63 5 0 0-3.327 4.532-5.083 6.713-3.666 4.554-7.986 5.83-14.287 5.83z" fill="#857e87"/><path d="m307.37 380.5c-2.22 8.63-10.05 15-19.37 15h-261c-11.05 0-20-8.95-20-20v-184c0-9.32 6.37-17.15 15-19.37v188.37c0 11.05 8.95 20 20 20z" fill="#6f6571"/><g><path d="m47.833 243.333c0 10.217 7.487 17.878 17.669 17.878 6.727 0 12.356-3.104 15.576-8.504.321-.538 1.137-1.555 1.137-1.555 1.105-2.375 1.723-5.025 1.723-7.819 0-10.217-8.254-18.5-18.436-18.5-3.251 0-6.305.844-8.957 2.326 0 0-2.171 1.998-3.303 3.083-3.513 3.369-5.409 7.831-5.409 13.091z" fill="#ff7d91"/><path d="m82.215 251.152c-2.93 6.308-9.312 10.681-16.712 10.681-10.181 0-18.44-8.283-18.44-18.5 0-6.952 3.825-13.011 9.482-16.174-1.11 2.375-1.724 5.026-1.724 7.819 0 10.217 8.259 18.5 18.44 18.5 3.253.001 6.304-.84 8.954-2.326z" fill="#e15f78"/></g><path d="m125.862 349.468-.851-132.723c0-2.209 1.791-4 4-4l6.989-1.245h128c2.209 0 4 1.791 4 4v128l-1.117 6.798c0 2.209-1.791 4-4 4l-133.021-.83c-2.209 0-4-1.791-4-4z" fill="#bde4ff"/><path d="m268 343.5v8c0 2.209-1.791 4-4 4h-136c-2.209 0-4-1.791-4-4v-136c0-2.209 1.791-4 4-4h8v121c0 6.075 4.925 11 11 11z" fill="#99dbff"/><path d="m446 177.5-24 6-7.117 2.948c-4.452 1.113-7.575 5.113-7.575 9.701l1.617 173.65c0 4.589 3.123 8.589 7.575 9.701l29.5 5.457 6.755-105.872z" fill="#857e87"/><path d="m446 373.01 4.372 9.564-4.372 6.926-32.43-8.11c-4.45-1.11-7.57-5.11-7.57-9.7v-176.38c0-4.59 3.12-8.59 7.57-9.7l8.43-2.11v169.456c0 8.26 5.621 15.459 13.634 17.463z" fill="#6f6571"/><path d="m493.649 402.277-35.894-.298c-5.523 0-10-4.477-10-10v-216.894c0-5.523 4.477-10 10-10l4.245-1.585h33c5.523 0 10 4.477 10 10v214l-1.351 4.777c0 5.522-4.477 10-10 10z" fill="#857e87"/><path d="m505 387.5v6c0 5.523-4.477 10-10 10h-39c-5.523 0-10-4.477-10-10v-220c0-5.523 4.477-10 10-10h6v212c0 6.627 5.373 12 12 12z" fill="#6f6571"/><g><path d="m377 212-7.51 7.57 7.51 7.43v17l-7.51 7.57 7.51 7.43v17l-7.51 7.57 7.51 7.43v17l-7.51 7.57 7.51 7.43v17l-7.51 7.57 7.51 7.43v14.5c0 5.52-4.48 10-10 10h-20c-5.52 0-10-4.48-10-10v-14.5l7.51-7.43-7.51-7.57v-17l7.51-7.43-7.51-7.57v-17l7.51-7.43-7.51-7.57v-17l7.51-7.43-7.51-7.57v-17l7.51-7.43-7.51-7.57v-14.5c0-5.52 4.48-10 10-10h20c5.52 0 10 4.48 10 10z" fill="#6f6571"/></g></g><g><path d="m267.977 204.101h-143.72c-4.134 0-7.485 3.351-7.485 7.485v143.719c0 4.134 3.351 7.485 7.485 7.485h143.719c4.134 0 7.485-3.351 7.485-7.485v-76.351c0-4.134-3.351-7.485-7.485-7.485s-7.485 3.351-7.485 7.485v68.865h-128.748v-128.747h128.749v24.951c0 4.134 3.351 7.485 7.485 7.485s7.485-3.351 7.485-7.485v-32.437c0-4.133-3.351-7.485-7.485-7.485z"/><path d="m494.534 156.195h-38.924c-8.996 0-16.421 6.838-17.361 15.588l-26.797 6.699c-7.032 1.758-12.136 7.612-13.064 14.641h-14.746c-1.99-7.457-8.783-12.975-16.859-12.975h-19.961c-8.076 0-14.869 5.517-16.859 12.975h-14.58v-1.497c0-15.134-12.312-27.446-27.446-27.446h-24.124l-13.156-28.943h27.299c9.631 0 17.466-7.835 17.466-17.466v-16.967c0-9.631-7.835-17.466-17.466-17.466h-27.945v-5.489c0-8.255 6.716-14.971 14.971-14.971h35.909c1.813 7.71 8.732 13.474 16.988 13.474h56.39c4.134 0 7.485-3.351 7.485-7.485s-3.351-7.485-7.485-7.485h-56.39c-1.376 0-2.495-1.119-2.495-2.495v-40.92c0-1.376 1.119-2.495 2.495-2.495h156.195c12.657 0 22.955 10.298 22.955 22.955s-10.298 22.953-22.955 22.953h-64.873c-4.134 0-7.485 3.351-7.485 7.485s3.351 7.485 7.485 7.485h64.873c20.912 0 37.926-17.014 37.926-37.926s-17.014-37.925-37.926-37.925h-156.195c-7.896 0-14.577 5.27-16.73 12.476h-36.166c-35.771 0-64.873 29.102-64.873 64.873v5.489h-154.434c-3.132-9.272-11.907-15.969-22.222-15.969-12.933 0-23.454 10.522-23.454 23.455v36.928c0 12.933 10.521 23.454 23.454 23.454 10.315 0 19.09-6.697 22.222-15.969h18.052l-13.156 28.943h-23.126c-15.134 0-27.446 12.313-27.446 27.447v183.641c0 15.134 12.312 27.446 27.446 27.446h40.421v16.468c0 15.134 12.312 27.446 27.446 27.446h21.458v57.388c0 4.134 3.351 7.485 7.485 7.485s7.485-3.351 7.485-7.485v-57.388h50.901v57.388c0 4.134 3.351 7.485 7.485 7.485s7.485-3.351 7.485-7.485v-57.388h21.458c15.134 0 27.446-12.312 27.446-27.446v-16.468h41.419c15.134 0 27.446-12.312 27.446-27.446v-4.491h14.049c.763 8.931 8.265 15.969 17.39 15.969h19.961c9.125 0 16.627-7.038 17.39-15.969h14.049v.691c0 8.029 5.441 14.997 13.23 16.944l26.797 6.699c.94 8.75 8.365 15.588 17.361 15.588h38.924c9.631 0 17.466-7.835 17.466-17.466v-219.571c.002-9.631-7.833-17.466-17.464-17.466zm-150.207 102.799h24.951v16.967h-24.951zm0 31.938h24.951v16.967h-24.951zm24.952-46.909h-24.951v-16.967h24.951zm-24.952 78.846h24.951v16.967h-24.951zm2.496-127.75h19.961c1.376 0 2.495 1.119 2.495 2.495v14.472h-24.951v-14.472c-.001-1.376 1.119-2.495 2.495-2.495zm-66.371-94.316v16.967c0 1.376-1.119 2.495-2.495 2.495h-231.049v-21.957h231.049c1.376 0 2.495 1.119 2.495 2.495zm-65.372-22.955c0-27.517 22.386-49.903 49.903-49.903h35.431v19.961h-35.431c-16.51 0-29.942 13.432-29.942 29.942v5.489h-19.961zm-191.626 58.386c-4.678 0-8.483-3.806-8.483-8.483v-36.928c0-4.678 3.806-8.483 8.483-8.483s8.483 3.806 8.483 8.483v36.928c.001 4.677-3.805 8.483-8.483 8.483zm56.719-.998h154.041l13.156 28.943h-180.353zm220.24 240.031c0 6.879-5.596 12.476-12.476 12.476h-143.22c-4.134 0-7.485 3.351-7.485 7.485s3.351 7.485 7.485 7.485h86.83v16.468c0 6.879-5.596 12.476-12.476 12.476h-123.757c-6.879 0-12.476-5.596-12.476-12.476v-16.468h26.947c4.134 0 7.485-3.351 7.485-7.485s-3.351-7.485-7.485-7.485h-82.339c-6.879 0-12.476-5.596-12.476-12.476v-183.641c0-6.879 5.596-12.476 12.476-12.476h260.491c6.879 0 12.476 5.596 12.476 12.476zm14.971-167.173h13.973v147.711h-13.973zm51.4 163.68h-19.961c-1.376 0-2.495-1.119-2.495-2.495v-14.472h24.951v14.472c0 1.375-1.12 2.495-2.495 2.495zm17.466-15.969v-147.711h13.973v147.711zm112.779 37.427c0 1.376-1.119 2.495-2.495 2.495h-38.924c-1.376 0-2.495-1.119-2.495-2.495v-33.435c0-4.134-3.351-7.485-7.485-7.485s-7.485 3.351-7.485 7.485v19.856l-23.061-5.765c-1.113-.278-1.89-1.274-1.89-2.421v-176.041c0-1.147.777-2.142 1.89-2.421l23.061-5.765v137.626c0 4.134 3.351 7.485 7.485 7.485s7.485-3.351 7.485-7.485v-151.205c0-1.376 1.119-2.495 2.495-2.495h38.924c1.376 0 2.495 1.119 2.495 2.495z"/><path d="m65.871 269.307c14.308 0 25.949-11.641 25.949-25.949s-11.641-25.949-25.949-25.949-25.949 11.641-25.949 25.949 11.641 25.949 25.949 25.949zm0-36.927c6.054 0 10.979 4.925 10.979 10.979s-4.925 10.979-10.979 10.979-10.979-4.925-10.979-10.979 4.926-10.979 10.979-10.979z"/><path d="m91.322 281.284h-51.899c-4.134 0-7.485 3.351-7.485 7.485s3.351 7.485 7.485 7.485h51.899c4.134 0 7.485-3.351 7.485-7.485s-3.351-7.485-7.485-7.485z"/><path d="m91.322 307.899h-51.899c-4.134 0-7.485 3.351-7.485 7.485s3.351 7.485 7.485 7.485h51.899c4.134 0 7.485-3.351 7.485-7.485s-3.351-7.485-7.485-7.485z"/><path d="m91.322 334.513h-51.899c-4.134 0-7.485 3.351-7.485 7.485s3.351 7.485 7.485 7.485h51.899c4.134 0 7.485-3.351 7.485-7.485 0-4.133-3.351-7.485-7.485-7.485z"/></g></g></svg>